<svg width="56" height="56" viewBox="0 0 56 56" fill="none" xmlns="http://www.w3.org/2000/svg">
<rect width="56" height="56" rx="28" fill="#E4E5DF"/>
<path d="M33.7372 28.8625L25.6122 36.9875C25.3833 37.2164 25.0727 37.345 24.7489 37.345C24.4251 37.345 24.1146 37.2164 23.8857 36.9875C23.6567 36.7585 23.5281 36.448 23.5281 36.1242C23.5281 35.8004 23.6567 35.4899 23.8857 35.2609L31.1484 28.0002L23.8877 20.7375C23.7743 20.6241 23.6844 20.4895 23.623 20.3414C23.5617 20.1933 23.5301 20.0345 23.5301 19.8742C23.5301 19.7139 23.5617 19.5551 23.623 19.407C23.6844 19.2589 23.7743 19.1243 23.8877 19.0109C24.0011 18.8975 24.1356 18.8076 24.2838 18.7463C24.4319 18.6849 24.5906 18.6533 24.751 18.6533C24.9113 18.6533 25.0701 18.6849 25.2182 18.7463C25.3663 18.8076 25.5009 18.8975 25.6143 19.0109L33.7393 27.1359C33.8527 27.2493 33.9427 27.3839 34.0041 27.5321C34.0654 27.6803 34.0969 27.8392 34.0967 27.9996C34.0965 28.16 34.0647 28.3188 34.003 28.4669C33.9413 28.6149 33.851 28.7494 33.7372 28.8625Z" fill="black"/>
</svg>
