<svg width="56" height="56" viewBox="0 0 56 56" fill="none" xmlns="http://www.w3.org/2000/svg">
<rect width="56" height="56" rx="28" fill="#E4E5DF"/>
<path d="M32.1122 35.2629C32.3412 35.4918 32.4698 35.8023 32.4698 36.1261C32.4698 36.4499 32.3412 36.7605 32.1122 36.9894C31.8833 37.2184 31.5728 37.347 31.249 37.347C30.9252 37.347 30.6146 37.2184 30.3857 36.9894L22.2607 28.8644C22.1471 28.7512 22.0569 28.6167 21.9954 28.4685C21.9339 28.3204 21.9022 28.1615 21.9022 28.0011C21.9022 27.8407 21.9339 27.6819 21.9954 27.5338C22.0569 27.3856 22.1471 27.2511 22.2607 27.1379L30.3857 19.0129C30.6146 18.7839 30.9252 18.6553 31.249 18.6553C31.5728 18.6553 31.8833 18.7839 32.1122 19.0129C32.3412 19.2418 32.4698 19.5523 32.4698 19.8761C32.4698 20.1999 32.3412 20.5105 32.1122 20.7394L24.8515 28.0001L32.1122 35.2629Z" fill="#ADADAD"/>
</svg>
