<svg width="72" height="72" viewBox="0 0 72 72" fill="none" xmlns="http://www.w3.org/2000/svg">
<rect width="72" height="72" rx="36" fill="#E4E5DF"/>
<path d="M26.1107 43.0947C24.7373 41.636 24 40 24 37.348C24 32.6813 27.276 28.4987 32.04 26.4307L33.2307 28.268C28.784 30.6733 27.9147 33.7947 27.568 35.7627C28.284 35.392 29.2213 35.2627 30.14 35.348C32.5453 35.5707 34.4413 37.5453 34.4413 40C34.4413 41.2377 33.9497 42.4247 33.0745 43.2998C32.1993 44.175 31.0123 44.6667 29.7747 44.6667C29.0902 44.6607 28.4138 44.5186 27.7847 44.2487C27.1557 43.9789 26.5866 43.5866 26.1107 43.0947ZM39.444 43.0947C38.0707 41.636 37.3333 40 37.3333 37.348C37.3333 32.6813 40.6093 28.4987 45.3733 26.4307L46.564 28.268C42.1173 30.6733 41.248 33.7947 40.9013 35.7627C41.6173 35.392 42.5547 35.2627 43.4733 35.348C45.8787 35.5707 47.7747 37.5453 47.7747 40C47.7747 41.2377 47.283 42.4247 46.4078 43.2998C45.5327 44.175 44.3457 44.6667 43.108 44.6667C42.4235 44.6607 41.7471 44.5186 41.1181 44.2487C40.489 43.9789 39.92 43.5866 39.444 43.0947Z" fill="#27563A"/>
</svg>
