<svg width="80" height="16" viewBox="0 0 80 16" fill="none" xmlns="http://www.w3.org/2000/svg">
<path d="M3.88325 14.6667L4.96659 9.98333L1.33325 6.83333L6.13325 6.41667L7.99992 2L9.86659 6.41667L14.6666 6.83333L11.0333 9.98333L12.1166 14.6667L7.99992 12.1833L3.88325 14.6667Z" fill="#E7AA3D"/>
<path d="M19.8833 14.6667L20.9666 9.98333L17.3333 6.83333L22.1333 6.41667L23.9999 2L25.8666 6.41667L30.6666 6.83333L27.0333 9.98333L28.1166 14.6667L23.9999 12.1833L19.8833 14.6667Z" fill="#E7AA3D"/>
<path d="M35.8833 14.6667L36.9666 9.98333L33.3333 6.83333L38.1333 6.41667L39.9999 2L41.8666 6.41667L46.6666 6.83333L43.0333 9.98333L44.1166 14.6667L39.9999 12.1833L35.8833 14.6667Z" fill="#E2E2E2"/>
<path d="M51.8833 14.6667L52.9666 9.98333L49.3333 6.83333L54.1333 6.41667L55.9999 2L57.8666 6.41667L62.6666 6.83333L59.0333 9.98333L60.1166 14.6667L55.9999 12.1833L51.8833 14.6667Z" fill="#E2E2E2"/>
<path d="M67.8833 14.6667L68.9666 9.98333L65.3333 6.83333L70.1333 6.41667L71.9999 2L73.8666 6.41667L78.6666 6.83333L75.0333 9.98333L76.1166 14.6667L71.9999 12.1833L67.8833 14.6667Z" fill="#E2E2E2"/>
</svg>
